<svg width="33" height="33" viewBox="0 0 33 33" fill="none" xmlns="http://www.w3.org/2000/svg">
<mask id="mask0_391_2779" style="mask-type:luminance" maskUnits="userSpaceOnUse" x="0" y="0" width="33" height="33">
<path d="M32.625 0.351807H0.375V32.6481H32.625V0.351807Z" fill="white"/>
</mask>
<g mask="url(#mask0_391_2779)">
<mask id="mask1_391_2779" style="mask-type:luminance" maskUnits="userSpaceOnUse" x="0" y="0" width="33" height="33">
<path d="M0.314453 16.4394C0.838516 16.399 1.34242 16.3587 1.86648 16.2779C2.39054 16.1972 2.89445 16.0963 3.39836 15.9751C3.90226 15.854 4.40617 15.7127 4.88992 15.5311C5.37367 15.3696 5.85742 15.1677 6.34117 14.9659C6.82492 14.7438 7.28851 14.5218 7.73195 14.2594C8.17539 13.997 8.61883 13.7346 9.04211 13.4318C9.46539 13.129 9.88867 12.8263 10.2918 12.4831C10.6949 12.1601 11.0779 11.7968 11.4407 11.4335C11.8035 11.0701 12.1663 10.6866 12.4888 10.2829C12.8113 9.87922 13.1338 9.47552 13.4362 9.05163C13.7385 8.62774 14.0005 8.18366 14.2626 7.71941C14.5246 7.27533 14.7463 6.81107 14.968 6.32663C15.1898 5.86237 15.3712 5.37792 15.5324 4.87329C15.6937 4.38885 15.8549 3.88422 15.9759 3.37959C16.0968 2.87496 16.1976 2.37033 16.2782 1.84552C16.3588 1.34089 16.4193 0.816075 16.4395 0.29126H16.4999C16.5402 0.816075 16.5805 1.3207 16.6612 1.84552C16.7418 2.37033 16.8426 2.87496 16.9635 3.37959C17.0844 3.88422 17.2255 4.38885 17.407 4.87329C17.5682 5.35774 17.7698 5.84218 17.9713 6.32663C18.193 6.79089 18.4148 7.25515 18.6768 7.71941C18.9388 8.16348 19.2009 8.60755 19.5032 9.03144C19.8055 9.45533 20.1079 9.87922 20.4505 10.2829C20.7932 10.6866 21.1359 11.0701 21.4987 11.4335C21.8615 11.7968 22.2445 12.1601 22.6476 12.4831C23.0507 12.8061 23.4538 13.129 23.8973 13.4318C24.3205 13.7346 24.764 13.997 25.2074 14.2594C25.6509 14.5218 26.1145 14.7438 26.5982 14.9659C27.0618 15.1879 27.5455 15.3696 28.0494 15.5513C28.5332 15.7127 29.0371 15.8742 29.541 15.9953C30.0449 16.1164 30.5488 16.2174 31.0729 16.2981C31.5768 16.3789 32.1009 16.4394 32.6249 16.4596V16.5201C32.1009 16.5605 31.5969 16.6009 31.0729 16.6816C30.5488 16.7624 30.0449 16.8633 29.541 16.9844C29.0371 17.1055 28.5332 17.2468 28.0494 17.4285C27.5657 17.59 27.082 17.7918 26.5982 17.9937C26.1346 18.2157 25.671 18.4377 25.2074 18.7001C24.764 18.9626 24.3205 19.225 23.8973 19.5277C23.474 19.8305 23.0507 20.1333 22.6476 20.4764C22.2445 20.8196 21.8615 21.1627 21.4987 21.5261C21.1359 21.8894 20.773 22.2729 20.4505 22.6766C20.1079 23.0803 19.8055 23.484 19.5032 23.9281C19.2009 24.352 18.9388 24.7961 18.6768 25.2401C18.4148 25.6842 18.193 26.1485 17.9713 26.6329C17.7496 27.0972 17.5682 27.5816 17.407 28.0863C17.2457 28.5909 17.0844 29.0753 16.9635 29.58C16.8426 30.0846 16.7418 30.5892 16.6612 31.114C16.5805 31.6187 16.5201 32.1435 16.4999 32.6683H16.4395C16.3991 32.1435 16.3588 31.6388 16.2782 31.114C16.1976 30.6094 16.0968 30.0846 15.9759 29.58C15.8549 29.0753 15.7138 28.5707 15.5324 28.0863C15.3712 27.6018 15.1696 27.1174 14.968 26.6329C14.7463 26.1687 14.5246 25.7044 14.2626 25.2401C14.0005 24.7961 13.7385 24.352 13.4362 23.9281C13.1338 23.5042 12.8315 23.0803 12.4888 22.6766C12.1462 22.2729 11.8035 21.8894 11.4407 21.5261C11.0779 21.1627 10.6949 20.7994 10.2918 20.4764C9.88867 20.1333 9.48555 19.8305 9.04211 19.5277C8.61883 19.225 8.17539 18.9626 7.73195 18.7001C7.28851 18.4377 6.82492 18.2157 6.34117 17.9937C5.87758 17.7716 5.39382 17.59 4.88992 17.4083C4.40617 17.2468 3.90226 17.0853 3.39836 16.9642C2.89445 16.8431 2.39054 16.7422 1.86648 16.6614C1.34242 16.5807 0.838516 16.5201 0.314453 16.5V16.4394Z" fill="white"/>
</mask>
<g mask="url(#mask1_391_2779)">
<path d="M29.2993 42.438L42.4008 3.66224L3.68066 -9.45813L-9.4209 29.3176L29.2993 42.438Z" fill="white"/>
</g>
</g>
</svg>
