<svg width="91" height="90" viewBox="0 0 91 90" fill="none" xmlns="http://www.w3.org/2000/svg">
<path d="M14.1593 81.4933H8.3393L7.3393 84.3333H4.9593L9.9393 70.4133H12.5793L17.5593 84.3333H15.1593L14.1593 81.4933ZM13.5193 79.6333L11.2593 73.1733L8.9793 79.6333H13.5193ZM29.7846 74.4333C29.4246 73.7399 28.9246 73.2199 28.2846 72.8733C27.6446 72.5133 26.9046 72.3333 26.0646 72.3333C25.1446 72.3333 24.3246 72.5399 23.6046 72.9533C22.8846 73.3666 22.3179 73.9533 21.9046 74.7133C21.5046 75.4733 21.3046 76.3533 21.3046 77.3533C21.3046 78.3533 21.5046 79.2399 21.9046 80.0133C22.3179 80.7733 22.8846 81.3599 23.6046 81.7733C24.3246 82.1866 25.1446 82.3933 26.0646 82.3933C27.3046 82.3933 28.3113 82.0466 29.0846 81.3533C29.8579 80.6599 30.3313 79.7199 30.5046 78.5333H25.2846V76.7133H32.9446V78.4933C32.7979 79.5733 32.4113 80.5666 31.7846 81.4733C31.1713 82.3799 30.3646 83.1066 29.3646 83.6533C28.3779 84.1866 27.2779 84.4533 26.0646 84.4533C24.7579 84.4533 23.5646 84.1533 22.4846 83.5533C21.4046 82.9399 20.5446 82.0933 19.9046 81.0133C19.2779 79.9333 18.9646 78.7133 18.9646 77.3533C18.9646 75.9933 19.2779 74.7733 19.9046 73.6933C20.5446 72.6133 21.4046 71.7733 22.4846 71.1733C23.5779 70.5599 24.7713 70.2533 26.0646 70.2533C27.5446 70.2533 28.8579 70.6199 30.0046 71.3533C31.1646 72.0733 32.0046 73.0999 32.5246 74.4333H29.7846ZM37.4734 72.2733V76.3533H42.2734V78.2133H37.4734V82.4733H42.8734V84.3333H35.1934V70.4133H42.8734V72.2733H37.4734ZM57.1016 84.3333H54.8216L47.9616 73.9533V84.3333H45.6816V70.4133H47.9616L54.8216 80.7733V70.4133H57.1016V84.3333ZM64.6357 70.4333C66.1157 70.4333 67.409 70.7199 68.5157 71.2933C69.6357 71.8533 70.4957 72.6666 71.0957 73.7333C71.709 74.7866 72.0157 76.0199 72.0157 77.4333C72.0157 78.8466 71.709 80.0733 71.0957 81.1133C70.4957 82.1533 69.6357 82.9533 68.5157 83.5133C67.409 84.0599 66.1157 84.3333 64.6357 84.3333H60.0957V70.4333H64.6357ZM64.6357 82.4733C66.2624 82.4733 67.509 82.0333 68.3757 81.1533C69.2424 80.2733 69.6757 79.0333 69.6757 77.4333C69.6757 75.8199 69.2424 74.5599 68.3757 73.6533C67.509 72.7466 66.2624 72.2933 64.6357 72.2933H62.3757V82.4733H64.6357ZM82.6554 81.4933H76.8354L75.8354 84.3333H73.4554L78.4354 70.4133H81.0754L86.0554 84.3333H83.6554L82.6554 81.4933ZM82.0154 79.6333L79.7554 73.1733L77.4754 79.6333H82.0154Z" fill="#1D68E5"/>
<path d="M44.6333 37.5774C40.9 37.3852 37.75 35.9626 35.1833 33.3096C32.6167 30.6567 31.3333 27.4654 31.3333 23.7359C31.3333 19.8911 32.6944 16.6229 35.4167 13.9315C38.1389 11.2401 41.4444 9.89442 45.3333 9.89442C49.1056 9.89442 52.3333 11.1632 55.0167 13.7008C57.7 16.2384 59.1389 19.3528 59.3333 23.0439L54.4333 21.602C53.9278 19.5258 52.8389 17.8245 51.1667 16.498C49.4944 15.1715 47.55 14.5083 45.3333 14.5083C42.7667 14.5083 40.5694 15.4118 38.7417 17.2189C36.9139 19.026 36 21.1983 36 23.7359C36 25.9275 36.6708 27.8499 38.0125 29.5032C39.3542 31.1565 41.075 32.2331 43.175 32.7329L44.6333 37.5774ZM47.4333 46.6898C47.0833 46.7667 46.7333 46.8051 46.3833 46.8051H45.3333C42.1056 46.8051 39.0722 46.1995 36.2333 44.9884C33.3944 43.7773 30.925 42.1336 28.825 40.0574C26.725 37.9812 25.0625 35.5397 23.8375 32.7329C22.6125 29.9262 22 26.9272 22 23.7359C22 20.5447 22.6125 17.5457 23.8375 14.7389C25.0625 11.9322 26.725 9.49071 28.825 7.41448C30.925 5.33826 33.3944 3.69458 36.2333 2.48345C39.0722 1.27231 42.1056 0.666748 45.3333 0.666748C48.5611 0.666748 51.5944 1.27231 54.4333 2.48345C57.2722 3.69458 59.7417 5.33826 61.8417 7.41448C63.9417 9.49071 65.6042 11.9322 66.8292 14.7389C68.0542 17.5457 68.6667 20.5447 68.6667 23.7359V24.774C68.6667 25.1201 68.6278 25.4661 68.55 25.8122L64 24.428V23.7359C64 18.5838 62.1917 14.2199 58.575 10.6442C54.9583 7.06845 50.5444 5.28058 45.3333 5.28058C40.1222 5.28058 35.7083 7.06845 32.0917 10.6442C28.475 14.2199 26.6667 18.5838 26.6667 23.7359C26.6667 28.888 28.475 33.252 32.0917 36.8277C35.7083 40.4034 40.1222 42.1913 45.3333 42.1913H46.0333L47.4333 46.6898ZM65.225 47.9586L55.25 38.0965L52.3333 46.8051L45.3333 23.7359L68.6667 30.6567L59.8583 33.5403L69.8333 43.4024L65.225 47.9586Z" fill="#4285F4"/>
</svg>
