<svg width="91" height="89" viewBox="0 0 91 89" fill="none" xmlns="http://www.w3.org/2000/svg">
<path d="M33.6363 70.1V71.96H29.9363V84H27.6563V71.96H23.9363V70.1H33.6363ZM38.2253 70.1V84H35.9453V70.1H38.2253ZM55.8588 70.1V84H53.5788V74.48L49.3388 84H47.7588L43.4988 74.48V84H41.2188V70.1H43.6788L48.5588 81L53.4188 70.1H55.8588ZM61.1355 71.94V76.02H65.9355V77.88H61.1355V82.14H66.5355V84H58.8555V70.08H66.5355V71.94H61.1355Z" fill="#1D68E5"/>
<path d="M53.0333 34.9667L56.3 31.7001L47.6667 23.0667V12.3334H43V24.9334L53.0333 34.9667ZM45.3333 47.3334C42.1056 47.3334 39.0722 46.7209 36.2333 45.4959C33.3944 44.2709 30.925 42.6084 28.825 40.5084C26.725 38.4084 25.0625 35.939 23.8375 33.1001C22.6125 30.2612 22 27.2279 22 24.0001C22 20.7723 22.6125 17.739 23.8375 14.9001C25.0625 12.0612 26.725 9.59175 28.825 7.49175C30.925 5.39175 33.3944 3.72925 36.2333 2.50425C39.0722 1.27925 42.1056 0.666748 45.3333 0.666748C48.5611 0.666748 51.5944 1.27925 54.4333 2.50425C57.2722 3.72925 59.7417 5.39175 61.8417 7.49175C63.9417 9.59175 65.6042 12.0612 66.8292 14.9001C68.0542 17.739 68.6667 20.7723 68.6667 24.0001C68.6667 27.2279 68.0542 30.2612 66.8292 33.1001C65.6042 35.939 63.9417 38.4084 61.8417 40.5084C59.7417 42.6084 57.2722 44.2709 54.4333 45.4959C51.5944 46.7209 48.5611 47.3334 45.3333 47.3334ZM45.3333 42.6667C50.5056 42.6667 54.9097 40.8487 58.5458 37.2126C62.1819 33.5765 64 29.1723 64 24.0001C64 18.8279 62.1819 14.4237 58.5458 10.7876C54.9097 7.15147 50.5056 5.33341 45.3333 5.33341C40.1611 5.33341 35.7569 7.15147 32.1208 10.7876C28.4847 14.4237 26.6667 18.8279 26.6667 24.0001C26.6667 29.1723 28.4847 33.5765 32.1208 37.2126C35.7569 40.8487 40.1611 42.6667 45.3333 42.6667Z" fill="#4285F4"/>
</svg>
