<svg width="91" height="89" viewBox="0 0 91 89" fill="none" xmlns="http://www.w3.org/2000/svg">
<path d="M27.437 70.1L22.217 84H19.577L14.337 70.1H16.777L20.897 81.66L25.037 70.1H27.437ZM31.6238 71.94V76.02H36.4238V77.88H31.6238V82.14H37.0238V84H29.3438V70.08H37.0238V71.94H31.6238ZM51.252 84H48.972L42.112 73.62V84H39.832V70.08H42.112L48.972 80.44V70.08H51.252V84ZM56.5061 70.1V78.96C56.5061 80.0133 56.7794 80.8067 57.3261 81.34C57.8861 81.8733 58.6594 82.14 59.6461 82.14C60.6461 82.14 61.4194 81.8733 61.9661 81.34C62.5261 80.8067 62.8061 80.0133 62.8061 78.96V70.1H65.0861V78.92C65.0861 80.0533 64.8394 81.0133 64.3461 81.8C63.8528 82.5867 63.1928 83.1733 62.3661 83.56C61.5394 83.9467 60.6261 84.14 59.6261 84.14C58.6261 84.14 57.7128 83.9467 56.8861 83.56C56.0728 83.1733 55.4261 82.5867 54.9461 81.8C54.4661 81.0133 54.2261 80.0533 54.2261 78.92V70.1H56.5061ZM70.3347 71.94V76.02H75.1347V77.88H70.3347V82.14H75.7347V84H68.0547V70.08H75.7347V71.94H70.3347Z" fill="#1D68E5"/>
<path d="M38.6667 26.3334H43.3333V19.9167H48V26.3334H52.6667V15.2501L45.6667 10.5834L38.6667 15.2501V26.3334ZM45.6667 41.1501C50.4111 36.7945 53.9306 32.8376 56.225 29.2792C58.5194 25.7209 59.6667 22.5612 59.6667 19.8001C59.6667 15.5612 58.3153 12.0904 55.6125 9.38758C52.9097 6.6848 49.5944 5.33341 45.6667 5.33341C41.7389 5.33341 38.4236 6.6848 35.7208 9.38758C33.0181 12.0904 31.6667 15.5612 31.6667 19.8001C31.6667 22.5612 32.8139 25.7209 35.1083 29.2792C37.4028 32.8376 40.9222 36.7945 45.6667 41.1501ZM45.6667 47.3334C39.4056 42.0056 34.7292 37.057 31.6375 32.4876C28.5458 27.9181 27 23.689 27 19.8001C27 13.9667 28.8764 9.31953 32.6292 5.85841C36.3819 2.3973 40.7278 0.666748 45.6667 0.666748C50.6056 0.666748 54.9514 2.3973 58.7042 5.85841C62.4569 9.31953 64.3333 13.9667 64.3333 19.8001C64.3333 23.689 62.7875 27.9181 59.6958 32.4876C56.6042 37.057 51.9278 42.0056 45.6667 47.3334Z" fill="#4285F4"/>
</svg>
