<svg width="78" height="78" viewBox="0 0 78 78" fill="none" xmlns="http://www.w3.org/2000/svg">
<g filter="url(#filter0_d_391_2272)">
<circle cx="39" cy="30" r="24" fill="#4285F4"/>
</g>
<path d="M40.4645 18.75H35.25C32.893 18.75 31.7145 18.75 30.9822 19.4822C30.25 20.2145 30.25 21.393 30.25 23.75V36.25C30.25 38.607 30.25 39.7855 30.9822 40.5178C31.7145 41.25 32.893 41.25 35.25 41.25H42.75C45.107 41.25 46.2855 41.25 47.0178 40.5178C47.75 39.7855 47.75 38.607 47.75 36.25V26.0355C47.75 25.5246 47.75 25.2691 47.6548 25.0394C47.5597 24.8097 47.3791 24.6291 47.0178 24.2678L42.2322 19.4822C41.8709 19.1209 41.6903 18.9403 41.4606 18.8452C41.2309 18.75 40.9754 18.75 40.4645 18.75Z" stroke="#F0F0F0" stroke-width="2"/>
<path d="M35.25 31.25L42.75 31.25" stroke="#F0F0F0" stroke-width="2" stroke-linecap="round"/>
<path d="M35.25 36.25L40.25 36.25" stroke="#F0F0F0" stroke-width="2" stroke-linecap="round"/>
<path d="M40.25 18.75V23.75C40.25 24.9285 40.25 25.5178 40.6161 25.8839C40.9822 26.25 41.5715 26.25 42.75 26.25H47.75" stroke="#F0F0F0" stroke-width="2"/>
<defs>
<filter id="filter0_d_391_2272" x="0" y="0" width="78" height="78" filterUnits="userSpaceOnUse" color-interpolation-filters="sRGB">
<feFlood flood-opacity="0" result="BackgroundImageFix"/>
<feColorMatrix in="SourceAlpha" type="matrix" values="0 0 0 0 0 0 0 0 0 0 0 0 0 0 0 0 0 0 127 0" result="hardAlpha"/>
<feOffset dy="9"/>
<feGaussianBlur stdDeviation="7.5"/>
<feComposite in2="hardAlpha" operator="out"/>
<feColorMatrix type="matrix" values="0 0 0 0 0.154167 0 0 0 0 0.154167 0 0 0 0 0.154167 0 0 0 0.05 0"/>
<feBlend mode="normal" in2="BackgroundImageFix" result="effect1_dropShadow_391_2272"/>
<feBlend mode="normal" in="SourceGraphic" in2="effect1_dropShadow_391_2272" result="shape"/>
</filter>
</defs>
</svg>
