<svg width="78" height="78" viewBox="0 0 78 78" fill="none" xmlns="http://www.w3.org/2000/svg">
<g filter="url(#filter0_d_391_2265)">
<circle cx="39" cy="30" r="24" fill="#4285F4"/>
</g>
<circle cx="39" cy="24.6665" r="3.5" stroke="#F0F0F0" stroke-linecap="round"/>
<path d="M41.2128 22.5832C41.493 22.0979 41.9108 21.7065 42.4134 21.4587C42.916 21.2108 43.4808 21.1176 44.0364 21.1907C44.592 21.2639 45.1134 21.5001 45.5347 21.8696C45.956 22.2391 46.2583 22.7252 46.4034 23.2665C46.5484 23.8078 46.5297 24.3799 46.3496 24.9106C46.1694 25.4412 45.836 25.9065 45.3914 26.2477C44.9468 26.5888 44.4111 26.7905 43.8519 26.8271C43.2927 26.8638 42.7352 26.7338 42.2499 26.4536" stroke="#F0F0F0"/>
<path d="M36.7872 22.5832C36.507 22.0979 36.0892 21.7065 35.5866 21.4587C35.084 21.2108 34.5192 21.1176 33.9636 21.1907C33.408 21.2639 32.8866 21.5001 32.4653 21.8696C32.044 22.2391 31.7417 22.7252 31.5966 23.2665C31.4516 23.8078 31.4703 24.3799 31.6504 24.9106C31.8306 25.4412 32.164 25.9065 32.6086 26.2477C33.0532 26.5888 33.5889 26.7905 34.1481 26.8271C34.7073 26.8638 35.2648 26.7338 35.7501 26.4536" stroke="#F0F0F0"/>
<path d="M39.0001 30.6665C44.7161 30.6665 45.9767 35.527 46.2548 37.6708C46.3258 38.2185 45.8857 38.6665 45.3334 38.6665H32.6667C32.1145 38.6665 31.6744 38.2185 31.7454 37.6708C32.0234 35.527 33.284 30.6665 39.0001 30.6665Z" stroke="#F0F0F0" stroke-linecap="round"/>
<path d="M48.813 34.9132L49.3013 34.8055L48.813 34.9132ZM40.4495 30.7814L40.0802 30.4442L39.4598 31.1238L40.3675 31.2746L40.4495 30.7814ZM45.9084 36.0002L45.4281 36.1391L45.5326 36.5002H45.9084V36.0002ZM43.6667 29.8335C45.1914 29.8335 46.2368 30.6315 46.9743 31.699C47.7211 32.78 48.1222 34.102 48.3247 35.0208L49.3013 34.8055C49.0873 33.835 48.6512 32.3671 47.797 31.1306C46.9335 29.8806 45.6139 28.8335 43.6667 28.8335V29.8335ZM40.8187 31.1185C41.5118 30.3594 42.4263 29.8335 43.6667 29.8335V28.8335C42.0983 28.8335 40.9286 29.5151 40.0802 30.4442L40.8187 31.1185ZM40.3675 31.2746C43.5264 31.7996 44.8572 34.1657 45.4281 36.1391L46.3887 35.8612C45.7687 33.7182 44.2397 30.9044 40.5314 30.2881L40.3675 31.2746ZM47.895 35.5002H45.9084V36.5002H47.895V35.5002ZM48.3247 35.0208C48.3758 35.2527 48.2026 35.5002 47.895 35.5002V36.5002C48.7706 36.5002 49.5048 35.7291 49.3013 34.8055L48.3247 35.0208Z" fill="#F0F0F0"/>
<path d="M37.5506 30.7814L37.6326 31.2746L38.5403 31.1238L37.9199 30.4442L37.5506 30.7814ZM29.1871 34.9132L29.6754 35.0208L29.1871 34.9132ZM32.0917 36.0002V36.5002H32.4675L32.572 36.1391L32.0917 36.0002ZM34.3334 29.8335C35.5738 29.8335 36.4883 30.3594 37.1814 31.1185L37.9199 30.4442C37.0715 29.5151 35.9018 28.8335 34.3334 28.8335V29.8335ZM29.6754 35.0208C29.8779 34.102 30.279 32.78 31.0258 31.699C31.7633 30.6315 32.8087 29.8335 34.3334 29.8335V28.8335C32.3862 28.8335 31.0666 29.8806 30.2031 31.1306C29.3488 32.3671 28.9127 33.835 28.6988 34.8055L29.6754 35.0208ZM30.1051 35.5002C29.7974 35.5002 29.6242 35.2527 29.6754 35.0208L28.6988 34.8055C28.4952 35.7291 29.2295 36.5002 30.1051 36.5002V35.5002ZM32.0917 35.5002H30.1051V36.5002H32.0917V35.5002ZM32.572 36.1391C33.1429 34.1657 34.4737 31.7996 37.6326 31.2746L37.4687 30.2881C33.7603 30.9044 32.2314 33.7182 31.6114 35.8612L32.572 36.1391Z" fill="#F0F0F0"/>
<defs>
<filter id="filter0_d_391_2265" x="0" y="0" width="78" height="78" filterUnits="userSpaceOnUse" color-interpolation-filters="sRGB">
<feFlood flood-opacity="0" result="BackgroundImageFix"/>
<feColorMatrix in="SourceAlpha" type="matrix" values="0 0 0 0 0 0 0 0 0 0 0 0 0 0 0 0 0 0 127 0" result="hardAlpha"/>
<feOffset dy="9"/>
<feGaussianBlur stdDeviation="7.5"/>
<feComposite in2="hardAlpha" operator="out"/>
<feColorMatrix type="matrix" values="0 0 0 0 0.154167 0 0 0 0 0.154167 0 0 0 0 0.154167 0 0 0 0.05 0"/>
<feBlend mode="normal" in2="BackgroundImageFix" result="effect1_dropShadow_391_2265"/>
<feBlend mode="normal" in="SourceGraphic" in2="effect1_dropShadow_391_2265" result="shape"/>
</filter>
</defs>
</svg>
