<svg width="78" height="78" viewBox="0 0 78 78" fill="none" xmlns="http://www.w3.org/2000/svg">
<g filter="url(#filter0_d_391_2279)">
<circle cx="39" cy="30" r="24" fill="#4285F4"/>
</g>
<path d="M30.9127 31.9008L31.78 32.3919L30.9127 31.9009C30.7758 32.1426 30.7108 32.4063 30.6594 32.6146C30.6547 32.6335 30.6501 32.652 30.6457 32.6699L29.6905 36.4907C29.6877 36.5019 29.6847 36.5135 29.6817 36.5255C29.6449 36.672 29.5939 36.8749 29.5763 37.0545C29.5561 37.2612 29.5494 37.7132 29.9182 38.082L30.6253 37.3749L29.9182 38.082C30.287 38.4507 30.7389 38.4441 30.9456 38.4238C31.1253 38.4063 31.3282 38.3553 31.4747 38.3184C31.4867 38.3154 31.4983 38.3125 31.5095 38.3097L35.3303 37.3545L35.0877 36.3844L35.3303 37.3545C35.3482 37.35 35.3667 37.3455 35.3856 37.3408C35.5939 37.2894 35.8575 37.2243 36.0993 37.0874L35.6066 36.2172L36.0993 37.0874C36.3411 36.9506 36.5325 36.7579 36.6838 36.6058C36.6975 36.592 36.7109 36.5785 36.724 36.5654L46.5431 26.7463C46.5559 26.7335 46.5687 26.7207 46.5815 26.7079C46.8815 26.4081 47.1729 26.1167 47.381 25.844C47.6155 25.5366 47.8359 25.1387 47.8359 24.625C47.8359 24.1113 47.6155 23.7134 47.381 23.406C47.1729 23.1333 46.8815 22.842 46.5816 22.5422C46.5687 22.5294 46.5559 22.5165 46.5431 22.5037L45.4965 21.4571C45.4836 21.4443 45.4708 21.4314 45.458 21.4186C45.1582 21.1187 44.8669 20.8272 44.5942 20.6192C44.2868 20.3847 43.8888 20.1642 43.3752 20.1642C42.8615 20.1642 42.4635 20.3847 42.1561 20.6192C41.8835 20.8272 41.5921 21.1187 41.2923 21.4186C41.2795 21.4314 41.2667 21.4443 41.2538 21.4571L31.4348 31.2762C31.4217 31.2893 31.4082 31.3026 31.3944 31.3164C31.2422 31.4676 31.0496 31.6591 30.9127 31.9008Z" stroke="#F0F0F0" stroke-width="2"/>
<path d="M40.146 22.6873L44.021 20.104L47.896 23.979L45.3127 27.854L40.146 22.6873Z" fill="#F0F0F0"/>
<defs>
<filter id="filter0_d_391_2279" x="0" y="0" width="78" height="78" filterUnits="userSpaceOnUse" color-interpolation-filters="sRGB">
<feFlood flood-opacity="0" result="BackgroundImageFix"/>
<feColorMatrix in="SourceAlpha" type="matrix" values="0 0 0 0 0 0 0 0 0 0 0 0 0 0 0 0 0 0 127 0" result="hardAlpha"/>
<feOffset dy="9"/>
<feGaussianBlur stdDeviation="7.5"/>
<feComposite in2="hardAlpha" operator="out"/>
<feColorMatrix type="matrix" values="0 0 0 0 0.154167 0 0 0 0 0.154167 0 0 0 0 0.154167 0 0 0 0.05 0"/>
<feBlend mode="normal" in2="BackgroundImageFix" result="effect1_dropShadow_391_2279"/>
<feBlend mode="normal" in="SourceGraphic" in2="effect1_dropShadow_391_2279" result="shape"/>
</filter>
</defs>
</svg>
